<svg xmlns="http://www.w3.org/2000/svg" viewBox="0 0 256 256"><path fill="#25D366" d="M128 0C57.3 0 0 57.3 0 128c0 23.3 6.3 45.1 17.4 63.9L9.6 256l65.2-17.4C93.3 247.6 110.2 252 128 252c70.7 0 128-57.3 128-128S198.7 0 128 0zm0 230c-16.7 0-32.6-4.7-46.2-12.8l-3.3-2-38.7 10.3 10.3-37.7-2.1-3.3C40.1 171.2 35 150 35 128 35 73.4 73.4 35 128 35s93 38.4 93 93-38.4 102-93 102zm56.5-70.6c-3-1.5-17.6-8.7-20.3-9.7-2.8-1-4.7-1.5-6.7 1.5s-7.7 9.7-9.4 11.7c-1.7 2-3.5 2.2-6.4.7-3-1.5-12.6-4.7-23.9-14.8-8.9-7.9-14.8-17.7-16.5-20.6-1.7-3 0-4.6 1.3-6.1 1.3-1.3 3-3.5 4.5-5.2s2-3 3-5c1-2 .5-3.7-.2-5.2s-6.7-16.1-9.2-22.1c-2.4-5.8-4.9-5-6.7-5.1-1.8-.1-3.7-.1-5.7-.1-2 0-5.2.7-7.9 3.7-2.7 3-10.4 10.1-10.4 24.7s10.6 28.6 12.1 30.6c1.5 2 20.9 31.9 50.6 44.7 7.1 3.1 12.6 4.9 16.9 6.2 7.1 2.3 13.6 1.9 18.7 1.2 5.7-.9 17.6-7.2 20.1-14.1 2.5-7 2.5-12.9 1.8-14.2-.7-1.3-3-2-6-3.5z"/></svg>